<svg viewBox="0 0 400 300" xmlns="http://www.w3.org/2000/svg"><path d="m289.32 90.26v133.28a3.65 3.65 0 0 1 -3.65 3.65h-154.82a3.65 3.65 0 0 1 -3.65-3.65v-133.28a3.65 3.65 0 0 1 3.65-3.66h154.82a3.65 3.65 0 0 1 3.65 3.66z" fill="#68e1fd"/><path d="m285.67 228.19h-154.82a4.66 4.66 0 0 1 -4.65-4.65v-133.28a4.66 4.66 0 0 1 4.65-4.66h154.82a4.66 4.66 0 0 1 4.65 4.66v133.28a4.65 4.65 0 0 1 -4.65 4.65zm-154.82-140.59a2.66 2.66 0 0 0 -2.65 2.66v133.28a2.65 2.65 0 0 0 2.65 2.65h154.82a2.65 2.65 0 0 0 2.65-2.65v-133.28a2.66 2.66 0 0 0 -2.65-2.66z" fill="#093f68"/><path d="m272.8 76.47v133.28a3.65 3.65 0 0 1 -3.65 3.65h-154.82a3.65 3.65 0 0 1 -3.65-3.65v-133.28a3.65 3.65 0 0 1 3.65-3.66h154.82a3.65 3.65 0 0 1 3.65 3.66z" fill="#fff"/><path d="m269.15 214.4h-154.82a4.65 4.65 0 0 1 -4.65-4.65v-133.28a4.66 4.66 0 0 1 4.65-4.66h154.82a4.66 4.66 0 0 1 4.65 4.66v133.28a4.65 4.65 0 0 1 -4.65 4.65zm-154.82-140.59a2.66 2.66 0 0 0 -2.65 2.66v133.28a2.65 2.65 0 0 0 2.65 2.65h154.82a2.65 2.65 0 0 0 2.65-2.65v-133.28a2.66 2.66 0 0 0 -2.65-2.66z" fill="#093f68"/><path d="m272.8 76.47v133.28a3.65 3.65 0 0 1 -3.65 3.65h-103v-140.59h103a3.65 3.65 0 0 1 3.65 3.66z" fill="#093f68"/><path d="m269.15 214.4h-103a1 1 0 0 1 -1-1v-140.59a1 1 0 0 1 1-1h103a4.66 4.66 0 0 1 4.65 4.66v133.28a4.65 4.65 0 0 1 -4.65 4.65zm-102-2h102a2.65 2.65 0 0 0 2.65-2.65v-133.28a2.66 2.66 0 0 0 -2.65-2.66h-102z" fill="#093f68"/><path d="m272.8 76.47v15h-162.12v-15a3.65 3.65 0 0 1 3.65-3.66h154.82a3.65 3.65 0 0 1 3.65 3.66z" fill="#fff"/><path d="m272.8 92.48h-162.12a1 1 0 0 1 -1-1v-15a4.66 4.66 0 0 1 4.65-4.66h154.82a4.66 4.66 0 0 1 4.65 4.66v15a1 1 0 0 1 -1 1zm-161.12-2h160.12v-14a2.66 2.66 0 0 0 -2.65-2.66h-154.82a2.66 2.66 0 0 0 -2.65 2.66z" fill="#093f68"/><circle cx="123.19" cy="81.63" fill="#f56132" r="3.38"/><path d="m123.19 86a4.38 4.38 0 1 1 4.38-4.38 4.39 4.39 0 0 1 -4.38 4.38zm0-6.76a2.38 2.38 0 1 0 2.38 2.38 2.39 2.39 0 0 0 -2.38-2.37z" fill="#093f68"/><circle cx="136.84" cy="81.63" fill="#ffbc0e" r="3.38"/><path d="m136.84 86a4.38 4.38 0 1 1 4.37-4.38 4.39 4.39 0 0 1 -4.37 4.38zm0-6.76a2.38 2.38 0 1 0 2.37 2.38 2.38 2.38 0 0 0 -2.37-2.37z" fill="#093f68"/><circle cx="150.48" cy="81.63" fill="#70cc40" r="3.38"/><path d="m150.48 86a4.38 4.38 0 1 1 4.38-4.38 4.39 4.39 0 0 1 -4.38 4.38zm0-6.76a2.38 2.38 0 1 0 2.38 2.38 2.39 2.39 0 0 0 -2.38-2.37z" fill="#093f68"/><g fill="#dfeaef"><path d="m148.3 104.19h-27.57a1 1 0 0 1 0-2h27.57a1 1 0 0 1 0 2z"/><path d="m153 116.59h-23.21a1 1 0 0 1 0-2h23.21a1 1 0 0 1 0 2z"/><path d="m156.18 129h-19.3a1 1 0 0 1 0-2h19.3a1 1 0 0 1 0 2z"/><path d="m149.88 141.41h-24.42a1 1 0 0 1 0-2h24.42a1 1 0 0 1 0 2z"/><path d="m143.31 153.81h-22.58a1 1 0 0 1 0-2h22.58a1 1 0 0 1 0 2z"/><path d="m148.3 166.22h-20a1 1 0 0 1 0-2h20a1 1 0 0 1 0 2z"/><path d="m141.41 178.62h-20.68a1 1 0 0 1 0-2h20.68a1 1 0 0 1 0 2z"/><path d="m148.3 191h-20a1 1 0 0 1 0-2h20a1 1 0 0 1 0 2z"/></g><path d="m193.62 104.19h-16.8a1 1 0 0 1 0-2h16.8a1 1 0 0 1 0 2z" fill="#fff"/><path d="m216.82 116.59h-34.48a1 1 0 0 1 0-2h34.48a1 1 0 0 1 0 2z" fill="#ffbc0e"/><path d="m208.26 129h-25.92a1 1 0 0 1 0-2h25.92a1 1 0 0 1 0 2z" fill="#ffbc0e"/><path d="m194.58 141.41h-14.88a1 1 0 0 1 0-2h14.88a1 1 0 0 1 0 2z" fill="#fff"/><path d="m200.5 153.81h-16.8a1 1 0 0 1 0-2h16.8a1 1 0 0 1 0 2z" fill="#f56132"/><path d="m209.06 166.22h-25.94a1 1 0 0 1 0-2h25.94a1 1 0 0 1 0 2z" fill="#fff"/><path d="m189.42 178.62h-12.6a1 1 0 0 1 0-2h12.6a1 1 0 0 1 0 2z" fill="#fff"/><path d="m209.06 191h-27.6a1 1 0 0 1 0-2h27.6a1 1 0 0 1 0 2z" fill="#70cc40"/><path d="m235.5 191h-18.12a1 1 0 0 1 0-2h18.12a1 1 0 0 1 0 2z" fill="#ffbc0e"/><path d="m229.62 129h-12.8a1 1 0 0 1 0-2h12.8a1 1 0 0 1 0 2z" fill="#fff"/><path d="m247.87 116.59h-24.65a1 1 0 0 1 0-2h24.65a1 1 0 0 1 0 2z" fill="#68e1fd"/><path d="m243.79 129h-7.21a1 1 0 0 1 0-2h7.21a1 1 0 0 1 0 2z" fill="#f56132"/><path d="m212.66 153.81h-7.2a1 1 0 1 1 0-2h7.2a1 1 0 1 1 0 2z" fill="#f56132"/><path d="m247.87 153.81h-29.29a1 1 0 1 1 0-2h29.29a1 1 0 0 1 0 2z" fill="#ffbc0e"/><path d="m223.22 166.22h-6.4a1 1 0 0 1 0-2h6.4a1 1 0 0 1 0 2z" fill="#68e1fd"/><path d="m247.87 191h-4.08a1 1 0 0 1 0-2h4.08a1 1 0 0 1 0 2z" fill="#fff"/></svg>